<svg xmlns="http://www.w3.org/2000/svg" width="839" height="314" viewBox="0 0 839 314" version="1.1"><path d="" stroke="none" fill="#dc1c24" fill-rule="evenodd"/><path d="M 10 155.825 L 10 301.649 28.250 298.289 C 38.288 296.441, 47.510 294.712, 48.745 294.447 L 50.991 293.964 51.245 190.775 L 51.500 87.586 56.338 105.043 C 70.546 156.315, 89.658 227.139, 96.533 254 C 100.827 270.775, 104.460 284.659, 104.607 284.854 C 104.754 285.049, 114.785 283.811, 126.897 282.104 C 139.009 280.397, 149.387 279, 149.960 279 C 150.675 279, 151 236.982, 151 144.500 L 151 10 130.750 10 L 110.500 10 110.677 88.250 C 110.775 131.287, 110.656 166.030, 110.412 165.455 C 109.976 164.425, 95.782 114.267, 76.398 45.263 L 66.500 10.026 38.250 10.013 L 10 10 10 155.825 M 181 142.638 L 181 275.275 186.250 274.663 C 209.598 271.939, 240.912 269.246, 293.750 265.418 L 302 264.820 302 245.410 C 302 234.735, 301.887 225.662, 301.750 225.250 C 301.613 224.838, 298.350 224.635, 294.500 224.799 C 281.463 225.356, 238.538 227.985, 232.238 228.612 L 225.976 229.236 226.238 190.368 L 226.500 151.500 245.500 150.772 C 255.950 150.372, 269.572 149.764, 275.772 149.422 L 287.044 148.800 286.772 130.650 L 286.500 112.500 276 112.739 C 270.225 112.870, 256.613 113.257, 245.750 113.598 L 226 114.219 226 80.259 L 226 46.299 235.154 45.650 C 240.188 45.292, 257.288 45, 273.154 45 L 302 45 302 27.500 L 302 10 241.500 10 L 181 10 181 142.638 M 328.754 136.750 L 329.008 263.500 331.754 263.302 C 333.264 263.194, 359.587 262.786, 390.250 262.396 L 446 261.688 446 241.844 L 446 222 409.500 222 L 373 222 373 116 L 373 10 350.750 10 L 328.500 10 328.754 136.750 M 464 135.899 L 464 261.799 476.250 262.389 C 482.988 262.714, 493.113 263.112, 498.750 263.275 L 509 263.571 509 208.244 L 509 152.917 516.250 153.436 C 520.237 153.722, 533.063 154.216, 544.750 154.534 L 566 155.113 566 136.713 L 566 118.313 550.250 117.660 C 541.587 117.301, 528.763 117.005, 521.750 117.003 L 509 117 509 81 L 509 45 545 45 L 581 45 581 27.500 L 581 10 522.500 10 L 464 10 464 135.899 M 602 139 C 602 209.950, 601.895 268.337, 601.766 268.750 C 601.592 269.306, 635.275 273.267, 645.750 273.922 C 646.744 273.984, 647 246.975, 647 142 L 647 10 624.500 10 L 602 10 602 139 M 670.757 11.250 C 672.232 13.091, 702.413 94.841, 712.936 125.500 L 716.712 136.500 711.360 151 C 689.696 209.689, 666.959 276.078, 668.384 276.481 C 668.998 276.655, 677.825 277.767, 688 278.952 C 698.175 280.137, 707.241 281.323, 708.146 281.588 C 709.480 281.978, 710.490 279.829, 713.461 270.284 C 715.478 263.803, 723.502 238.982, 731.292 215.126 C 744.827 173.681, 745.512 171.889, 746.715 174.838 C 748.820 179.996, 766.344 238.844, 774.067 266.687 L 781.330 292.875 790.915 294.563 C 796.187 295.492, 806.716 297.456, 814.313 298.928 C 821.911 300.400, 828.275 301.356, 828.457 301.052 C 829.505 299.299, 799.470 199.819, 782.385 148.453 L 779.709 140.406 802.442 75.965 C 814.946 40.523, 825.388 11.181, 825.647 10.762 C 825.906 10.343, 816.529 10.005, 804.809 10.011 L 783.500 10.022 767.069 57.530 C 758.033 83.660, 750.327 104.693, 749.946 104.269 C 749.565 103.846, 745.659 92.700, 741.266 79.500 C 736.872 66.300, 729.782 45.263, 725.509 32.750 L 717.740 10 693.748 10 C 674.686 10, 669.961 10.257, 670.757 11.250" stroke="none" fill="#dc1c2c" fill-rule="evenodd"/></svg>